M48
INCH,TZ
T01C.016
;LEADER: 12 
;HEADER: 
;CODE  : ASCII 
;FILE  : DRILL.drl for  ... layers TOP and BOTTOM
;DESIGN: sers n21 pcb.brd
;T01 Holesize 1. = 16.000000 Tolerance = +0.000000/-0.000000 PLATED MILS Quantity = 36
%
G90
T01
X47000Y30000
X30000Y32500
X62500Y135000
X78100Y135000
X83000Y44000
X125000Y55000
X35000Y55000
X35000Y41260
X121000Y106000
X132500Y102500
X107500Y72500
X135000Y38500
X109000Y26000
X15500Y106000
X142500Y91000
X122500Y17500
X145000Y133000
X65500Y10000
X10669Y60000
X135000Y17500
X15000Y140000
X115000Y48500
X87500Y113500
X112500Y135000
X96000Y134500
X50000Y87500
X73000Y77000
X73000Y100000
X60000Y25000
X22000Y37000
X61000Y112500
X30000Y76500
X38000Y85000
X55000Y45000
X108000Y105000
X80700Y130400
M30
