G04 ================== begin FILE IDENTIFICATION RECORD ==================*
G04 Layout Name:  sers n21 pcb.brd*
G04 Film Name:    FAB*
G04 File Format:  Gerber RS274X*
G04 File Origin:  Cadence Allegro 24.1-P001*
G04 Origin Date:  Sun Dec 15 11:57:36 2024*
G04 *
G04 Layer:  MANUFACTURING/NCDRILL_LEGEND*
G04 Layer:  MANUFACTURING/NCDRILL_FIGURE*
G04 Layer:  MANUFACTURING/XSECTION_CHART*
G04 Layer:  MANUFACTURING/NCLEGEND-1-2*
G04 Layer:  BOARD GEOMETRY/DIMENSION*
G04 *
G04 Offset:    (0.00 0.00)*
G04 Mirror:    No*
G04 Mode:      Positive*
G04 Rotation:  0*
G04 FullContactRelief:  No*
G04 UndefLineWidth:     0.10*
G04 ================== end FILE IDENTIFICATION RECORD ====================*
%FSLAX25Y25*MOIN*%
%IR0*IPPOS*OFA0.00000B0.00000*MIA0B0*SFA1.00000B1.00000*%
%AMMACRO10*
1,1,.0001,.008,0.0*
20,1,.0001,.008,0.0,.007878,-.001389,0.0*
1,1,.0001,.007878,-.001389*
20,1,.0001,.007878,-.001389,.007518,-.002736,0.0*
1,1,.0001,.007518,-.002736*
20,1,.0001,.007518,-.002736,.006928,-.004,0.0*
1,1,.0001,.006928,-.004*
20,1,.0001,.006928,-.004,.006128,-.005142,0.0*
1,1,.0001,.006128,-.005142*
20,1,.0001,.006128,-.005142,.005142,-.006128,0.0*
1,1,.0001,.005142,-.006128*
20,1,.0001,.005142,-.006128,.004,-.006928,0.0*
1,1,.0001,.004,-.006928*
20,1,.0001,.004,-.006928,.002736,-.007518,0.0*
1,1,.0001,.002736,-.007518*
20,1,.0001,.002736,-.007518,.001389,-.007878,0.0*
1,1,.0001,.001389,-.007878*
20,1,.0001,.001389,-.007878,0.0,-.008,0.0*
1,1,.0001,0.0,-.008*
20,1,.0001,0.0,-.008,-.001389,-.007878,0.0*
1,1,.0001,-.001389,-.007878*
20,1,.0001,-.001389,-.007878,-.002736,-.007518,0.0*
1,1,.0001,-.002736,-.007518*
20,1,.0001,-.002736,-.007518,-.004,-.006928,0.0*
1,1,.0001,-.004,-.006928*
20,1,.0001,-.004,-.006928,-.005142,-.006128,0.0*
1,1,.0001,-.005142,-.006128*
20,1,.0001,-.005142,-.006128,-.006128,-.005142,0.0*
1,1,.0001,-.006128,-.005142*
20,1,.0001,-.006128,-.005142,-.006928,-.004,0.0*
1,1,.0001,-.006928,-.004*
20,1,.0001,-.006928,-.004,-.007518,-.002736,0.0*
1,1,.0001,-.007518,-.002736*
20,1,.0001,-.007518,-.002736,-.007878,-.001389,0.0*
1,1,.0001,-.007878,-.001389*
20,1,.0001,-.007878,-.001389,-.008,0.0,0.0*
1,1,.0001,-.008,0.0*
20,1,.0001,-.008,0.0,-.007878,.001389,0.0*
1,1,.0001,-.007878,.001389*
20,1,.0001,-.007878,.001389,-.007518,.002736,0.0*
1,1,.0001,-.007518,.002736*
20,1,.0001,-.007518,.002736,-.006928,.004,0.0*
1,1,.0001,-.006928,.004*
20,1,.0001,-.006928,.004,-.006128,.005142,0.0*
1,1,.0001,-.006128,.005142*
20,1,.0001,-.006128,.005142,-.005142,.006128,0.0*
1,1,.0001,-.005142,.006128*
20,1,.0001,-.005142,.006128,-.004,.006928,0.0*
1,1,.0001,-.004,.006928*
20,1,.0001,-.004,.006928,-.002736,.007518,0.0*
1,1,.0001,-.002736,.007518*
20,1,.0001,-.002736,.007518,-.001389,.007878,0.0*
1,1,.0001,-.001389,.007878*
20,1,.0001,-.001389,.007878,0.0,.008,0.0*
1,1,.0001,0.0,.008*
20,1,.0001,0.0,.008,.001389,.007878,0.0*
1,1,.0001,.001389,.007878*
20,1,.0001,.001389,.007878,.002736,.007518,0.0*
1,1,.0001,.002736,.007518*
20,1,.0001,.002736,.007518,.004,.006928,0.0*
1,1,.0001,.004,.006928*
20,1,.0001,.004,.006928,.005142,.006128,0.0*
1,1,.0001,.005142,.006128*
20,1,.0001,.005142,.006128,.006128,.005142,0.0*
1,1,.0001,.006128,.005142*
20,1,.0001,.006128,.005142,.006928,.004,0.0*
1,1,.0001,.006928,.004*
20,1,.0001,.006928,.004,.007518,.002736,0.0*
1,1,.0001,.007518,.002736*
20,1,.0001,.007518,.002736,.007878,.001389,0.0*
1,1,.0001,.007878,.001389*
20,1,.0001,.007878,.001389,.008,0.0,0.0*
1,1,.0001,.008,0.0*
%
%ADD10MACRO10*%
%ADD11C,.004*%
%ADD12C,.0001*%
G75*
%LPD*%
G75*
G36*
G01X-119500Y160899D02*
Y158668D01*
X-117000D01*
Y-35269D01*
X-119500D01*
Y-37500D01*
X-104500D01*
Y-35269D01*
X-107000D01*
Y158668D01*
X-104500D01*
Y160899D01*
X-119500D01*
G37*
G36*
G01X-139500Y-37499D02*
Y-35268D01*
X-79500D01*
Y-37499D01*
X-139500D01*
G37*
G36*
G01Y158668D02*
Y160899D01*
X-79500D01*
Y158668D01*
X-139500D01*
G37*
G54D10*
X-179550Y217500D03*
X10669Y60000D03*
X15500Y106000D03*
X15000Y140000D03*
X22000Y37000D03*
X35000Y41260D03*
Y55000D03*
X30000Y32500D03*
X47000Y30000D03*
X38000Y85000D03*
X30000Y76500D03*
X50000Y87500D03*
X60000Y25000D03*
X65500Y10000D03*
X55000Y45000D03*
X73000Y77000D03*
X61000Y112500D03*
X73000Y100000D03*
X80700Y130400D03*
X78100Y135000D03*
X62500D03*
X109000Y26000D03*
X83000Y44000D03*
X107500Y72500D03*
X108000Y105000D03*
X87500Y113500D03*
X96000Y134500D03*
X135000Y17500D03*
X122500D03*
X115000Y48500D03*
X135000Y38500D03*
X125000Y55000D03*
X132500Y102500D03*
X121000Y106000D03*
X112500Y135000D03*
X142500Y91000D03*
X145000Y133000D03*
G54D11*
G01X-137587Y-47967D02*
Y-45467D01*
X-137053D01*
X-136840Y-45592D01*
X-136680Y-45759D01*
X-136547Y-46009D01*
X-136440Y-46300D01*
X-136413Y-46717D01*
X-136440Y-47134D01*
X-136547Y-47425D01*
X-136680Y-47675D01*
X-136840Y-47842D01*
X-137053Y-47967D01*
X-137587D01*
G01X-134267D02*
X-135333D01*
Y-45467D01*
X-134267D01*
G01X-134693Y-46675D02*
X-135333D01*
G01X-133160Y-47634D02*
X-132947Y-47842D01*
X-132707Y-47967D01*
X-132493D01*
X-132280Y-47842D01*
X-132120Y-47634D01*
X-132040Y-47342D01*
X-132093Y-47050D01*
X-132227Y-46800D01*
X-132467Y-46634D01*
X-132787Y-46550D01*
X-132973Y-46384D01*
X-133053Y-46092D01*
X-133000Y-45800D01*
X-132867Y-45592D01*
X-132680Y-45467D01*
X-132493D01*
X-132307Y-45550D01*
X-132147Y-45759D01*
G01X-130720Y-45467D02*
X-130080D01*
G01X-130400D02*
Y-47967D01*
G01X-130720D02*
X-130080D01*
G01X-128040Y-46717D02*
X-127507D01*
Y-47467D01*
X-127667Y-47717D01*
X-127853Y-47884D01*
X-128120Y-47967D01*
X-128387Y-47884D01*
X-128573Y-47717D01*
X-128733Y-47467D01*
X-128840Y-47175D01*
X-128893Y-46842D01*
Y-46550D01*
X-128840Y-46300D01*
X-128733Y-46009D01*
X-128573Y-45759D01*
X-128413Y-45592D01*
X-128200Y-45467D01*
X-128013D01*
X-127800Y-45550D01*
X-127640Y-45717D01*
G01X-126613Y-47967D02*
Y-45467D01*
X-125387Y-47967D01*
Y-45467D01*
G01X-121013Y-45675D02*
X-121173Y-45550D01*
X-121360Y-45467D01*
X-121573D01*
X-121813Y-45592D01*
X-122000Y-45800D01*
X-122133Y-46050D01*
X-122240Y-46467D01*
X-122267Y-46842D01*
X-122213Y-47217D01*
X-122133Y-47467D01*
X-121973Y-47717D01*
X-121787Y-47884D01*
X-121600Y-47967D01*
X-121413D01*
X-121227Y-47884D01*
X-121067Y-47759D01*
X-120933Y-47592D01*
G01X-119933Y-47967D02*
Y-45467D01*
X-119267D01*
X-119053Y-45592D01*
X-118920Y-45759D01*
X-118867Y-46092D01*
X-118920Y-46425D01*
X-119080Y-46634D01*
X-119267Y-46759D01*
X-119933D01*
G01X-119267D02*
X-118867Y-47967D01*
G01X-117200D02*
X-117413Y-47925D01*
X-117600Y-47759D01*
X-117760Y-47509D01*
X-117867Y-47217D01*
X-117920Y-46884D01*
Y-46550D01*
X-117867Y-46217D01*
X-117760Y-45925D01*
X-117600Y-45675D01*
X-117413Y-45509D01*
X-117200Y-45467D01*
X-116987Y-45509D01*
X-116800Y-45675D01*
X-116640Y-45925D01*
X-116533Y-46217D01*
X-116480Y-46550D01*
Y-46884D01*
X-116533Y-47217D01*
X-116640Y-47509D01*
X-116800Y-47759D01*
X-116987Y-47925D01*
X-117200Y-47967D01*
G01X-115560Y-47634D02*
X-115347Y-47842D01*
X-115107Y-47967D01*
X-114893D01*
X-114680Y-47842D01*
X-114520Y-47634D01*
X-114440Y-47342D01*
X-114493Y-47050D01*
X-114627Y-46800D01*
X-114867Y-46634D01*
X-115187Y-46550D01*
X-115373Y-46384D01*
X-115453Y-46092D01*
X-115400Y-45800D01*
X-115267Y-45592D01*
X-115080Y-45467D01*
X-114893D01*
X-114707Y-45550D01*
X-114547Y-45759D01*
G01X-113360Y-47634D02*
X-113147Y-47842D01*
X-112907Y-47967D01*
X-112693D01*
X-112480Y-47842D01*
X-112320Y-47634D01*
X-112240Y-47342D01*
X-112293Y-47050D01*
X-112427Y-46800D01*
X-112667Y-46634D01*
X-112987Y-46550D01*
X-113173Y-46384D01*
X-113253Y-46092D01*
X-113200Y-45800D01*
X-113067Y-45592D01*
X-112880Y-45467D01*
X-112693D01*
X-112507Y-45550D01*
X-112347Y-45759D01*
G01X-108960Y-47634D02*
X-108747Y-47842D01*
X-108507Y-47967D01*
X-108293D01*
X-108080Y-47842D01*
X-107920Y-47634D01*
X-107840Y-47342D01*
X-107893Y-47050D01*
X-108027Y-46800D01*
X-108267Y-46634D01*
X-108587Y-46550D01*
X-108773Y-46384D01*
X-108853Y-46092D01*
X-108800Y-45800D01*
X-108667Y-45592D01*
X-108480Y-45467D01*
X-108293D01*
X-108107Y-45550D01*
X-107947Y-45759D01*
G01X-105667Y-47967D02*
X-106733D01*
Y-45467D01*
X-105667D01*
G01X-106093Y-46675D02*
X-106733D01*
G01X-103413Y-45675D02*
X-103573Y-45550D01*
X-103760Y-45467D01*
X-103973D01*
X-104213Y-45592D01*
X-104400Y-45800D01*
X-104533Y-46050D01*
X-104640Y-46467D01*
X-104667Y-46842D01*
X-104613Y-47217D01*
X-104533Y-47467D01*
X-104373Y-47717D01*
X-104187Y-47884D01*
X-104000Y-47967D01*
X-103813D01*
X-103627Y-47884D01*
X-103467Y-47759D01*
X-103333Y-47592D01*
G01X-101800Y-45467D02*
Y-47967D01*
G01X-102413Y-45467D02*
X-101187D01*
G01X-99920D02*
X-99280D01*
G01X-99600D02*
Y-47967D01*
G01X-99920D02*
X-99280D01*
G01X-97400D02*
X-97613Y-47925D01*
X-97800Y-47759D01*
X-97960Y-47509D01*
X-98067Y-47217D01*
X-98120Y-46884D01*
Y-46550D01*
X-98067Y-46217D01*
X-97960Y-45925D01*
X-97800Y-45675D01*
X-97613Y-45509D01*
X-97400Y-45467D01*
X-97187Y-45509D01*
X-97000Y-45675D01*
X-96840Y-45925D01*
X-96733Y-46217D01*
X-96680Y-46550D01*
Y-46884D01*
X-96733Y-47217D01*
X-96840Y-47509D01*
X-97000Y-47759D01*
X-97187Y-47925D01*
X-97400Y-47967D01*
G01X-95813D02*
Y-45467D01*
X-94587Y-47967D01*
Y-45467D01*
G01X-90213Y-45675D02*
X-90373Y-45550D01*
X-90560Y-45467D01*
X-90773D01*
X-91013Y-45592D01*
X-91200Y-45800D01*
X-91333Y-46050D01*
X-91440Y-46467D01*
X-91467Y-46842D01*
X-91413Y-47217D01*
X-91333Y-47467D01*
X-91173Y-47717D01*
X-90987Y-47884D01*
X-90800Y-47967D01*
X-90613D01*
X-90427Y-47884D01*
X-90267Y-47759D01*
X-90133Y-47592D01*
G01X-89160Y-47967D02*
Y-45467D01*
G01X-88040D02*
Y-47967D01*
G01Y-46717D02*
X-89160D01*
G01X-87067Y-47967D02*
X-86400Y-45467D01*
X-85733Y-47967D01*
G01X-85973Y-47092D02*
X-86827D01*
G01X-84733Y-47967D02*
Y-45467D01*
X-84067D01*
X-83853Y-45592D01*
X-83720Y-45759D01*
X-83667Y-46092D01*
X-83720Y-46425D01*
X-83880Y-46634D01*
X-84067Y-46759D01*
X-84733D01*
G01X-84067D02*
X-83667Y-47967D01*
G01X-82000Y-45467D02*
Y-47967D01*
G01X-82613Y-45467D02*
X-81387D01*
G01X-138900Y-48800D02*
X-137300D01*
G01X-136700D02*
X-135100D01*
G01X-134500D02*
X-132900D01*
G01X-132300D02*
X-130700D01*
G01X-130100D02*
X-128500D01*
G01X-127900D02*
X-126300D01*
G01X-125700D02*
X-124100D01*
G01X-123500D02*
X-121900D01*
G01X-121300D02*
X-119700D01*
G01X-119100D02*
X-117500D01*
G01X-116900D02*
X-115300D01*
G01X-114700D02*
X-113100D01*
G01X-112500D02*
X-110900D01*
G01X-110300D02*
X-108700D01*
G01X-108100D02*
X-106500D01*
G01X-105900D02*
X-104300D01*
G01X-103700D02*
X-102100D01*
G01X-101500D02*
X-99900D01*
G01X-99300D02*
X-97700D01*
G01X-97100D02*
X-95500D01*
G01X-94900D02*
X-93300D01*
G01X-92700D02*
X-91100D01*
G01X-90500D02*
X-88900D01*
G01X-88300D02*
X-86700D01*
G01X-86100D02*
X-84500D01*
G01X-83900D02*
X-82300D01*
G01X-81700D02*
X-80100D01*
G01X-132600Y-49967D02*
Y-52467D01*
G01X-133213Y-49967D02*
X-131987D01*
G01X-130400Y-52467D02*
X-130613Y-52425D01*
X-130800Y-52259D01*
X-130960Y-52009D01*
X-131067Y-51717D01*
X-131120Y-51384D01*
Y-51050D01*
X-131067Y-50717D01*
X-130960Y-50425D01*
X-130800Y-50175D01*
X-130613Y-50009D01*
X-130400Y-49967D01*
X-130187Y-50009D01*
X-130000Y-50175D01*
X-129840Y-50425D01*
X-129733Y-50717D01*
X-129680Y-51050D01*
Y-51384D01*
X-129733Y-51717D01*
X-129840Y-52009D01*
X-130000Y-52259D01*
X-130187Y-52425D01*
X-130400Y-52467D01*
G01X-128200Y-49967D02*
Y-52467D01*
G01X-128813Y-49967D02*
X-127587D01*
G01X-126667Y-52467D02*
X-126000Y-49967D01*
X-125333Y-52467D01*
G01X-125573Y-51592D02*
X-126427D01*
G01X-124333Y-49967D02*
Y-52467D01*
X-123267D01*
G01X-119400Y-49967D02*
Y-52467D01*
G01X-120013Y-49967D02*
X-118787D01*
G01X-117760Y-52467D02*
Y-49967D01*
G01X-116640D02*
Y-52467D01*
G01Y-51217D02*
X-117760D01*
G01X-115320Y-49967D02*
X-114680D01*
G01X-115000D02*
Y-52467D01*
G01X-115320D02*
X-114680D01*
G01X-112213Y-50175D02*
X-112373Y-50050D01*
X-112560Y-49967D01*
X-112773D01*
X-113013Y-50092D01*
X-113200Y-50300D01*
X-113333Y-50550D01*
X-113440Y-50967D01*
X-113467Y-51342D01*
X-113413Y-51717D01*
X-113333Y-51967D01*
X-113173Y-52217D01*
X-112987Y-52384D01*
X-112800Y-52467D01*
X-112613D01*
X-112427Y-52384D01*
X-112267Y-52259D01*
X-112133Y-52092D01*
G01X-111187Y-52467D02*
Y-49967D01*
G01X-110173D02*
X-111187Y-51509D01*
G01X-110013Y-52467D02*
X-110733Y-50800D01*
G01X-109013Y-52467D02*
Y-49967D01*
X-107787Y-52467D01*
Y-49967D01*
G01X-105667Y-52467D02*
X-106733D01*
Y-49967D01*
X-105667D01*
G01X-106093Y-51175D02*
X-106733D01*
G01X-104560Y-52134D02*
X-104347Y-52342D01*
X-104107Y-52467D01*
X-103893D01*
X-103680Y-52342D01*
X-103520Y-52134D01*
X-103440Y-51842D01*
X-103493Y-51550D01*
X-103627Y-51300D01*
X-103867Y-51134D01*
X-104187Y-51050D01*
X-104373Y-50884D01*
X-104453Y-50592D01*
X-104400Y-50300D01*
X-104267Y-50092D01*
X-104080Y-49967D01*
X-103893D01*
X-103707Y-50050D01*
X-103547Y-50259D01*
G01X-102360Y-52134D02*
X-102147Y-52342D01*
X-101907Y-52467D01*
X-101693D01*
X-101480Y-52342D01*
X-101320Y-52134D01*
X-101240Y-51842D01*
X-101293Y-51550D01*
X-101427Y-51300D01*
X-101667Y-51134D01*
X-101987Y-51050D01*
X-102173Y-50884D01*
X-102253Y-50592D01*
X-102200Y-50300D01*
X-102067Y-50092D01*
X-101880Y-49967D01*
X-101693D01*
X-101507Y-50050D01*
X-101347Y-50259D01*
G01X-97907Y-51425D02*
X-97720Y-51134D01*
X-97560Y-50967D01*
X-97347Y-50884D01*
X-97160Y-50967D01*
X-97027Y-51134D01*
X-96920Y-51384D01*
X-96893Y-51675D01*
X-96920Y-51925D01*
X-97027Y-52175D01*
X-97187Y-52384D01*
X-97373Y-52467D01*
X-97587Y-52384D01*
X-97773Y-52134D01*
X-97880Y-51759D01*
X-97907Y-51342D01*
X-97853Y-50800D01*
X-97773Y-50509D01*
X-97640Y-50217D01*
X-97453Y-50009D01*
X-97267Y-49967D01*
X-97080Y-50050D01*
X-96947Y-50259D01*
G01X-94880Y-52467D02*
Y-49967D01*
X-95867Y-51759D01*
X-94533D01*
G01X-91493Y-52467D02*
Y-49967D01*
X-90800Y-52050D01*
X-90107Y-49967D01*
Y-52467D01*
G01X-88920Y-49967D02*
X-88280D01*
G01X-88600D02*
Y-52467D01*
G01X-88920D02*
X-88280D01*
G01X-86933Y-49967D02*
Y-52467D01*
X-85867D01*
G01X-112000Y164199D02*
X-114500D01*
X-114000Y163879D01*
G01X-112000D02*
Y164519D01*
G01X-112833Y166052D02*
Y166746D01*
G01X-114083Y168092D02*
X-114333Y168252D01*
X-114458Y168439D01*
X-114500Y168652D01*
X-114417Y168919D01*
X-114208Y169106D01*
X-113958Y169159D01*
X-113708Y169132D01*
X-113500Y169026D01*
X-113083Y168492D01*
X-112792Y168252D01*
X-112375Y168092D01*
X-112000Y168039D01*
Y169159D01*
G01X-77033Y-36101D02*
Y-38601D01*
X-75967D01*
G01X-74807Y-36518D02*
X-74647Y-36268D01*
X-74460Y-36143D01*
X-74247Y-36101D01*
X-73980Y-36184D01*
X-73793Y-36393D01*
X-73740Y-36643D01*
X-73767Y-36893D01*
X-73873Y-37101D01*
X-74407Y-37518D01*
X-74647Y-37809D01*
X-74807Y-38226D01*
X-74860Y-38601D01*
X-73740D01*
G01X-69687Y-37268D02*
X-69580Y-37143D01*
X-69500Y-36934D01*
X-69447Y-36643D01*
X-69500Y-36393D01*
X-69607Y-36226D01*
X-69793Y-36101D01*
X-70513D01*
Y-38601D01*
X-69633D01*
X-69447Y-38434D01*
X-69340Y-38184D01*
X-69287Y-37893D01*
X-69340Y-37601D01*
X-69500Y-37351D01*
X-69687Y-37268D01*
X-70513D01*
G01X-67700Y-38601D02*
X-67913Y-38559D01*
X-68100Y-38393D01*
X-68260Y-38143D01*
X-68367Y-37851D01*
X-68420Y-37518D01*
Y-37184D01*
X-68367Y-36851D01*
X-68260Y-36559D01*
X-68100Y-36309D01*
X-67913Y-36143D01*
X-67700Y-36101D01*
X-67487Y-36143D01*
X-67300Y-36309D01*
X-67140Y-36559D01*
X-67033Y-36851D01*
X-66980Y-37184D01*
Y-37518D01*
X-67033Y-37851D01*
X-67140Y-38143D01*
X-67300Y-38393D01*
X-67487Y-38559D01*
X-67700Y-38601D01*
G01X-65500Y-36101D02*
Y-38601D01*
G01X-66113Y-36101D02*
X-64887D01*
G01X-63300D02*
Y-38601D01*
G01X-63913Y-36101D02*
X-62687D01*
G01X-61100Y-38601D02*
X-61313Y-38559D01*
X-61500Y-38393D01*
X-61660Y-38143D01*
X-61767Y-37851D01*
X-61820Y-37518D01*
Y-37184D01*
X-61767Y-36851D01*
X-61660Y-36559D01*
X-61500Y-36309D01*
X-61313Y-36143D01*
X-61100Y-36101D01*
X-60887Y-36143D01*
X-60700Y-36309D01*
X-60540Y-36559D01*
X-60433Y-36851D01*
X-60380Y-37184D01*
Y-37518D01*
X-60433Y-37851D01*
X-60540Y-38143D01*
X-60700Y-38393D01*
X-60887Y-38559D01*
X-61100Y-38601D01*
G01X-59593D02*
Y-36101D01*
X-58900Y-38184D01*
X-58207Y-36101D01*
Y-38601D01*
G01X-53913Y-36309D02*
X-54073Y-36184D01*
X-54260Y-36101D01*
X-54473D01*
X-54713Y-36226D01*
X-54900Y-36434D01*
X-55033Y-36684D01*
X-55140Y-37101D01*
X-55167Y-37476D01*
X-55113Y-37851D01*
X-55033Y-38101D01*
X-54873Y-38351D01*
X-54687Y-38518D01*
X-54500Y-38601D01*
X-54313D01*
X-54127Y-38518D01*
X-53967Y-38393D01*
X-53833Y-38226D01*
G01X-52300Y-38601D02*
X-52513Y-38559D01*
X-52700Y-38393D01*
X-52860Y-38143D01*
X-52967Y-37851D01*
X-53020Y-37518D01*
Y-37184D01*
X-52967Y-36851D01*
X-52860Y-36559D01*
X-52700Y-36309D01*
X-52513Y-36143D01*
X-52300Y-36101D01*
X-52087Y-36143D01*
X-51900Y-36309D01*
X-51740Y-36559D01*
X-51633Y-36851D01*
X-51580Y-37184D01*
Y-37518D01*
X-51633Y-37851D01*
X-51740Y-38143D01*
X-51900Y-38393D01*
X-52087Y-38559D01*
X-52300Y-38601D01*
G01X-50713D02*
Y-36101D01*
X-49487Y-38601D01*
Y-36101D01*
G01X-48487Y-38601D02*
Y-36101D01*
X-47953D01*
X-47740Y-36226D01*
X-47580Y-36393D01*
X-47447Y-36643D01*
X-47340Y-36934D01*
X-47313Y-37351D01*
X-47340Y-37768D01*
X-47447Y-38059D01*
X-47580Y-38309D01*
X-47740Y-38476D01*
X-47953Y-38601D01*
X-48487D01*
G01X-46287Y-36101D02*
Y-37893D01*
X-46180Y-38268D01*
X-45967Y-38518D01*
X-45700Y-38601D01*
X-45433Y-38518D01*
X-45220Y-38268D01*
X-45113Y-37893D01*
Y-36101D01*
G01X-42913Y-36309D02*
X-43073Y-36184D01*
X-43260Y-36101D01*
X-43473D01*
X-43713Y-36226D01*
X-43900Y-36434D01*
X-44033Y-36684D01*
X-44140Y-37101D01*
X-44167Y-37476D01*
X-44113Y-37851D01*
X-44033Y-38101D01*
X-43873Y-38351D01*
X-43687Y-38518D01*
X-43500Y-38601D01*
X-43313D01*
X-43127Y-38518D01*
X-42967Y-38393D01*
X-42833Y-38226D01*
G01X-41300Y-36101D02*
Y-38601D01*
G01X-41913Y-36101D02*
X-40687D01*
G01X-39100Y-38601D02*
X-39313Y-38559D01*
X-39500Y-38393D01*
X-39660Y-38143D01*
X-39767Y-37851D01*
X-39820Y-37518D01*
Y-37184D01*
X-39767Y-36851D01*
X-39660Y-36559D01*
X-39500Y-36309D01*
X-39313Y-36143D01*
X-39100Y-36101D01*
X-38887Y-36143D01*
X-38700Y-36309D01*
X-38540Y-36559D01*
X-38433Y-36851D01*
X-38380Y-37184D01*
Y-37518D01*
X-38433Y-37851D01*
X-38540Y-38143D01*
X-38700Y-38393D01*
X-38887Y-38559D01*
X-39100Y-38601D01*
G01X-37433D02*
Y-36101D01*
X-36767D01*
X-36553Y-36226D01*
X-36420Y-36393D01*
X-36367Y-36726D01*
X-36420Y-37059D01*
X-36580Y-37268D01*
X-36767Y-37393D01*
X-37433D01*
G01X-36767D02*
X-36367Y-38601D01*
G01X-72687Y-42017D02*
X-71513Y-40184D01*
G01X-72100Y-39851D02*
Y-42351D01*
G01X-71513Y-42017D02*
X-72687Y-40184D01*
G01X-72900Y-41101D02*
X-71300D01*
G01X-66060Y-41601D02*
X-65847Y-41809D01*
X-65607Y-41934D01*
X-65393D01*
X-65180Y-41809D01*
X-65020Y-41601D01*
X-64940Y-41309D01*
X-64993Y-41017D01*
X-65127Y-40767D01*
X-65367Y-40601D01*
X-65687Y-40517D01*
X-65873Y-40351D01*
X-65953Y-40059D01*
X-65900Y-39767D01*
X-65767Y-39559D01*
X-65580Y-39434D01*
X-65393D01*
X-65207Y-39517D01*
X-65047Y-39726D01*
G01X-63887Y-39434D02*
Y-41226D01*
X-63780Y-41601D01*
X-63567Y-41851D01*
X-63300Y-41934D01*
X-63033Y-41851D01*
X-62820Y-41601D01*
X-62713Y-41226D01*
Y-39434D01*
G01X-61633Y-41934D02*
Y-39434D01*
X-60967D01*
X-60753Y-39559D01*
X-60620Y-39726D01*
X-60567Y-40059D01*
X-60620Y-40392D01*
X-60780Y-40601D01*
X-60967Y-40726D01*
X-61633D01*
G01X-60967D02*
X-60567Y-41934D01*
G01X-59407D02*
Y-39434D01*
X-58393D01*
G01X-58767Y-40642D02*
X-59407D01*
G01X-57367Y-41934D02*
X-56700Y-39434D01*
X-56033Y-41934D01*
G01X-56273Y-41059D02*
X-57127D01*
G01X-53913Y-39642D02*
X-54073Y-39517D01*
X-54260Y-39434D01*
X-54473D01*
X-54713Y-39559D01*
X-54900Y-39767D01*
X-55033Y-40017D01*
X-55140Y-40434D01*
X-55167Y-40809D01*
X-55113Y-41184D01*
X-55033Y-41434D01*
X-54873Y-41684D01*
X-54687Y-41851D01*
X-54500Y-41934D01*
X-54313D01*
X-54127Y-41851D01*
X-53967Y-41726D01*
X-53833Y-41559D01*
G01X-51767Y-41934D02*
X-52833D01*
Y-39434D01*
X-51767D01*
G01X-52193Y-40642D02*
X-52833D01*
G01X-72687Y61617D02*
X-71513Y63450D01*
G01X-72100Y63783D02*
Y61283D01*
G01X-71513Y61617D02*
X-72687Y63450D01*
G01X-72900Y62533D02*
X-71300D01*
G01X-66087Y61700D02*
Y64200D01*
X-65553D01*
X-65340Y64075D01*
X-65180Y63908D01*
X-65047Y63658D01*
X-64940Y63367D01*
X-64913Y62950D01*
X-64940Y62533D01*
X-65047Y62242D01*
X-65180Y61992D01*
X-65340Y61825D01*
X-65553Y61700D01*
X-66087D01*
G01X-63620Y64200D02*
X-62980D01*
G01X-63300D02*
Y61700D01*
G01X-63620D02*
X-62980D01*
G01X-60567D02*
X-61633D01*
Y64200D01*
X-60567D01*
G01X-60993Y62992D02*
X-61633D01*
G01X-59433Y64200D02*
Y61700D01*
X-58367D01*
G01X-56167D02*
X-57233D01*
Y64200D01*
X-56167D01*
G01X-56593Y62992D02*
X-57233D01*
G01X-53913Y63992D02*
X-54073Y64117D01*
X-54260Y64200D01*
X-54473D01*
X-54713Y64075D01*
X-54900Y63867D01*
X-55033Y63617D01*
X-55140Y63200D01*
X-55167Y62825D01*
X-55113Y62450D01*
X-55033Y62200D01*
X-54873Y61950D01*
X-54687Y61783D01*
X-54500Y61700D01*
X-54313D01*
X-54127Y61783D01*
X-53967Y61908D01*
X-53833Y62075D01*
G01X-52300Y64200D02*
Y61700D01*
G01X-52913Y64200D02*
X-51687D01*
G01X-50633Y61700D02*
Y64200D01*
X-49967D01*
X-49753Y64075D01*
X-49620Y63908D01*
X-49567Y63575D01*
X-49620Y63242D01*
X-49780Y63033D01*
X-49967Y62908D01*
X-50633D01*
G01X-49967D02*
X-49567Y61700D01*
G01X-48220Y64200D02*
X-47580D01*
G01X-47900D02*
Y61700D01*
G01X-48220D02*
X-47580D01*
G01X-45113Y63992D02*
X-45273Y64117D01*
X-45460Y64200D01*
X-45673D01*
X-45913Y64075D01*
X-46100Y63867D01*
X-46233Y63617D01*
X-46340Y63200D01*
X-46367Y62825D01*
X-46313Y62450D01*
X-46233Y62200D01*
X-46073Y61950D01*
X-45887Y61783D01*
X-45700Y61700D01*
X-45513D01*
X-45327Y61783D01*
X-45167Y61908D01*
X-45033Y62075D01*
G01X-72687Y161649D02*
X-71513Y163482D01*
G01X-72100Y163815D02*
Y161315D01*
G01X-71513Y161649D02*
X-72687Y163482D01*
G01X-72900Y162565D02*
X-71300D01*
G01X-66060Y162065D02*
X-65847Y161857D01*
X-65607Y161732D01*
X-65393D01*
X-65180Y161857D01*
X-65020Y162065D01*
X-64940Y162357D01*
X-64993Y162649D01*
X-65127Y162899D01*
X-65367Y163065D01*
X-65687Y163149D01*
X-65873Y163315D01*
X-65953Y163607D01*
X-65900Y163899D01*
X-65767Y164107D01*
X-65580Y164232D01*
X-65393D01*
X-65207Y164149D01*
X-65047Y163940D01*
G01X-63887Y164232D02*
Y162440D01*
X-63780Y162065D01*
X-63567Y161815D01*
X-63300Y161732D01*
X-63033Y161815D01*
X-62820Y162065D01*
X-62713Y162440D01*
Y164232D01*
G01X-61633Y161732D02*
Y164232D01*
X-60967D01*
X-60753Y164107D01*
X-60620Y163940D01*
X-60567Y163607D01*
X-60620Y163274D01*
X-60780Y163065D01*
X-60967Y162940D01*
X-61633D01*
G01X-60967D02*
X-60567Y161732D01*
G01X-59407D02*
Y164232D01*
X-58393D01*
G01X-58767Y163024D02*
X-59407D01*
G01X-57367Y161732D02*
X-56700Y164232D01*
X-56033Y161732D01*
G01X-56273Y162607D02*
X-57127D01*
G01X-53913Y164024D02*
X-54073Y164149D01*
X-54260Y164232D01*
X-54473D01*
X-54713Y164107D01*
X-54900Y163899D01*
X-55033Y163649D01*
X-55140Y163232D01*
X-55167Y162857D01*
X-55113Y162482D01*
X-55033Y162232D01*
X-54873Y161982D01*
X-54687Y161815D01*
X-54500Y161732D01*
X-54313D01*
X-54127Y161815D01*
X-53967Y161940D01*
X-53833Y162107D01*
G01X-51767Y161732D02*
X-52833D01*
Y164232D01*
X-51767D01*
G01X-52193Y163024D02*
X-52833D01*
G01X-77033Y160066D02*
Y157566D01*
X-75967D01*
G01X-74300D02*
Y160066D01*
X-74620Y159566D01*
G01Y157566D02*
X-73980D01*
G01X-69900Y160066D02*
Y157566D01*
G01X-70513Y160066D02*
X-69287D01*
G01X-67700Y157566D02*
X-67913Y157608D01*
X-68100Y157774D01*
X-68260Y158024D01*
X-68367Y158316D01*
X-68420Y158649D01*
Y158983D01*
X-68367Y159316D01*
X-68260Y159608D01*
X-68100Y159858D01*
X-67913Y160024D01*
X-67700Y160066D01*
X-67487Y160024D01*
X-67300Y159858D01*
X-67140Y159608D01*
X-67033Y159316D01*
X-66980Y158983D01*
Y158649D01*
X-67033Y158316D01*
X-67140Y158024D01*
X-67300Y157774D01*
X-67487Y157608D01*
X-67700Y157566D01*
G01X-66033D02*
Y160066D01*
X-65393D01*
X-65180Y159941D01*
X-65020Y159649D01*
X-64967Y159316D01*
X-65020Y158983D01*
X-65153Y158733D01*
X-65393Y158608D01*
X-66033D01*
G01X-60513Y159858D02*
X-60673Y159983D01*
X-60860Y160066D01*
X-61073D01*
X-61313Y159941D01*
X-61500Y159733D01*
X-61633Y159483D01*
X-61740Y159066D01*
X-61767Y158691D01*
X-61713Y158316D01*
X-61633Y158066D01*
X-61473Y157816D01*
X-61287Y157649D01*
X-61100Y157566D01*
X-60913D01*
X-60727Y157649D01*
X-60567Y157774D01*
X-60433Y157941D01*
G01X-58900Y157566D02*
X-59113Y157608D01*
X-59300Y157774D01*
X-59460Y158024D01*
X-59567Y158316D01*
X-59620Y158649D01*
Y158983D01*
X-59567Y159316D01*
X-59460Y159608D01*
X-59300Y159858D01*
X-59113Y160024D01*
X-58900Y160066D01*
X-58687Y160024D01*
X-58500Y159858D01*
X-58340Y159608D01*
X-58233Y159316D01*
X-58180Y158983D01*
Y158649D01*
X-58233Y158316D01*
X-58340Y158024D01*
X-58500Y157774D01*
X-58687Y157608D01*
X-58900Y157566D01*
G01X-57313D02*
Y160066D01*
X-56087Y157566D01*
Y160066D01*
G01X-55087Y157566D02*
Y160066D01*
X-54553D01*
X-54340Y159941D01*
X-54180Y159774D01*
X-54047Y159524D01*
X-53940Y159233D01*
X-53913Y158816D01*
X-53940Y158399D01*
X-54047Y158108D01*
X-54180Y157858D01*
X-54340Y157691D01*
X-54553Y157566D01*
X-55087D01*
G01X-52887Y160066D02*
Y158274D01*
X-52780Y157899D01*
X-52567Y157649D01*
X-52300Y157566D01*
X-52033Y157649D01*
X-51820Y157899D01*
X-51713Y158274D01*
Y160066D01*
G01X-49513Y159858D02*
X-49673Y159983D01*
X-49860Y160066D01*
X-50073D01*
X-50313Y159941D01*
X-50500Y159733D01*
X-50633Y159483D01*
X-50740Y159066D01*
X-50767Y158691D01*
X-50713Y158316D01*
X-50633Y158066D01*
X-50473Y157816D01*
X-50287Y157649D01*
X-50100Y157566D01*
X-49913D01*
X-49727Y157649D01*
X-49567Y157774D01*
X-49433Y157941D01*
G01X-47900Y160066D02*
Y157566D01*
G01X-48513Y160066D02*
X-47287D01*
G01X-45700Y157566D02*
X-45913Y157608D01*
X-46100Y157774D01*
X-46260Y158024D01*
X-46367Y158316D01*
X-46420Y158649D01*
Y158983D01*
X-46367Y159316D01*
X-46260Y159608D01*
X-46100Y159858D01*
X-45913Y160024D01*
X-45700Y160066D01*
X-45487Y160024D01*
X-45300Y159858D01*
X-45140Y159608D01*
X-45033Y159316D01*
X-44980Y158983D01*
Y158649D01*
X-45033Y158316D01*
X-45140Y158024D01*
X-45300Y157774D01*
X-45487Y157608D01*
X-45700Y157566D01*
G01X-44033D02*
Y160066D01*
X-43367D01*
X-43153Y159941D01*
X-43020Y159774D01*
X-42967Y159441D01*
X-43020Y159108D01*
X-43180Y158899D01*
X-43367Y158774D01*
X-44033D01*
G01X-43367D02*
X-42967Y157566D01*
G54D12*
G01X-224500Y205000D02*
Y305000D01*
X473000D01*
Y205000D01*
X-224500D01*
G01Y230000D02*
X473000D01*
G01X-224500Y255000D02*
X473000D01*
G01X-224500Y280000D02*
X473000D01*
G01X-213495Y236250D02*
Y248750D01*
X-207605D01*
G01X-209775Y242708D02*
X-213495D01*
G01X-200010Y248750D02*
X-196290D01*
G01X-198150D02*
Y236250D01*
G01X-200010D02*
X-196290D01*
G01X-184820Y242500D02*
X-181720D01*
Y238750D01*
X-182650Y237500D01*
X-183735Y236667D01*
X-185285Y236250D01*
X-186835Y236667D01*
X-187920Y237500D01*
X-188850Y238750D01*
X-189470Y240208D01*
X-189780Y241875D01*
Y243333D01*
X-189470Y244583D01*
X-188850Y246042D01*
X-187920Y247292D01*
X-186990Y248125D01*
X-185750Y248750D01*
X-184665D01*
X-183425Y248333D01*
X-182495Y247500D01*
G01X-176760Y248750D02*
Y239792D01*
X-176140Y237916D01*
X-174900Y236667D01*
X-173350Y236250D01*
X-171800Y236667D01*
X-170560Y237916D01*
X-169940Y239792D01*
Y248750D01*
G01X-164050Y236250D02*
Y248750D01*
X-160175D01*
X-158935Y248125D01*
X-158160Y247292D01*
X-157850Y245625D01*
X-158160Y243958D01*
X-159090Y242917D01*
X-160175Y242292D01*
X-164050D01*
G01X-160175D02*
X-157850Y236250D01*
G01X-145450D02*
X-151650D01*
Y248750D01*
X-145450D01*
G01X-147930Y242708D02*
X-151650D01*
G01X-139500Y-35268D02*
Y158668D01*
X-79500D01*
Y-35268D01*
X-139500D01*
G01X-134600Y255000D02*
Y205000D01*
G01X-111195Y236250D02*
Y248750D01*
X-105305D01*
G01X-107475Y242708D02*
X-111195D01*
G01X-97710Y248750D02*
X-93990D01*
G01X-95850D02*
Y236250D01*
G01X-97710D02*
X-93990D01*
G01X-87015D02*
Y248750D01*
X-79885Y236250D01*
Y248750D01*
G01X-72910D02*
X-69190D01*
G01X-71050D02*
Y236250D01*
G01X-72910D02*
X-69190D01*
G01X-61905Y237916D02*
X-60665Y236875D01*
X-59270Y236250D01*
X-58030D01*
X-56790Y236875D01*
X-55860Y237916D01*
X-55395Y239375D01*
X-55705Y240833D01*
X-56480Y242083D01*
X-57875Y242917D01*
X-59735Y243333D01*
X-60820Y244167D01*
X-61285Y245625D01*
X-60975Y247083D01*
X-60200Y248125D01*
X-59115Y248750D01*
X-58030D01*
X-56945Y248333D01*
X-56015Y247292D01*
G01X-49505Y236250D02*
Y248750D01*
G01X-42995D02*
Y236250D01*
G01Y242500D02*
X-49505D01*
G01X-30750Y236250D02*
X-36950D01*
Y248750D01*
X-30750D01*
G01X-33230Y242708D02*
X-36950D01*
G01X-24860Y236250D02*
Y248750D01*
X-21760D01*
X-20520Y248125D01*
X-19590Y247292D01*
X-18815Y246042D01*
X-18195Y244583D01*
X-18040Y242500D01*
X-18195Y240417D01*
X-18815Y238958D01*
X-19590Y237708D01*
X-20520Y236875D01*
X-21760Y236250D01*
X-24860D01*
G01X-13700Y232083D02*
X-4400D01*
G01X95Y237916D02*
X1335Y236875D01*
X2730Y236250D01*
X3970D01*
X5210Y236875D01*
X6140Y237916D01*
X6605Y239375D01*
X6295Y240833D01*
X5520Y242083D01*
X4125Y242917D01*
X2265Y243333D01*
X1180Y244167D01*
X715Y245625D01*
X1025Y247083D01*
X1800Y248125D01*
X2885Y248750D01*
X3970D01*
X5055Y248333D01*
X5985Y247292D01*
G01X13890Y248750D02*
X17610D01*
G01X15750D02*
Y236250D01*
G01X13890D02*
X17610D01*
G01X25205Y248750D02*
X31095D01*
X25205Y236250D01*
X31095D01*
G01X43650D02*
X37450D01*
Y248750D01*
X43650D01*
G01X41170Y242708D02*
X37450D01*
G01X-52450Y211250D02*
Y223750D01*
X-54310Y221250D01*
G01Y211250D02*
X-50590D01*
G01X-42995Y216458D02*
X-41910Y217917D01*
X-40980Y218750D01*
X-39740Y219167D01*
X-38655Y218750D01*
X-37880Y217917D01*
X-37260Y216667D01*
X-37105Y215208D01*
X-37260Y213958D01*
X-37880Y212708D01*
X-38810Y211667D01*
X-39895Y211250D01*
X-41135Y211667D01*
X-42220Y212916D01*
X-42840Y214792D01*
X-42995Y216875D01*
X-42685Y219583D01*
X-42220Y221042D01*
X-41445Y222500D01*
X-40360Y223542D01*
X-39275Y223750D01*
X-38190Y223333D01*
X-37415Y222292D01*
G01X-27650Y210833D02*
X-27960Y211042D01*
Y211458D01*
X-27650Y211667D01*
X-27340Y211458D01*
Y211042D01*
X-27650Y210833D01*
G01X-15250Y223750D02*
X-16490Y223333D01*
X-17420Y222292D01*
X-18040Y221042D01*
X-18505Y219375D01*
X-18660Y217500D01*
X-18505Y215625D01*
X-18040Y213958D01*
X-17420Y212708D01*
X-16490Y211667D01*
X-15250Y211250D01*
X-14010Y211667D01*
X-13080Y212708D01*
X-12460Y213958D01*
X-11995Y215625D01*
X-11840Y217500D01*
X-11995Y219375D01*
X-12460Y221042D01*
X-13080Y222292D01*
X-14010Y223333D01*
X-15250Y223750D01*
G01X-34160Y286250D02*
Y298750D01*
X-31060D01*
X-29820Y298125D01*
X-28890Y297292D01*
X-28115Y296042D01*
X-27495Y294583D01*
X-27340Y292500D01*
X-27495Y290417D01*
X-28115Y288958D01*
X-28890Y287708D01*
X-29820Y286875D01*
X-31060Y286250D01*
X-34160D01*
G01X-21450D02*
Y298750D01*
X-17575D01*
X-16335Y298125D01*
X-15560Y297292D01*
X-15250Y295625D01*
X-15560Y293958D01*
X-16490Y292917D01*
X-17575Y292292D01*
X-21450D01*
G01X-17575D02*
X-15250Y286250D01*
G01X-7810Y298750D02*
X-4090D01*
G01X-5950D02*
Y286250D01*
G01X-7810D02*
X-4090D01*
G01X3350Y298750D02*
Y286250D01*
X9550D01*
G01X15750Y298750D02*
Y286250D01*
X21950D01*
G01X47060Y297708D02*
X46130Y298333D01*
X45045Y298750D01*
X43805D01*
X42410Y298125D01*
X41325Y297083D01*
X40550Y295833D01*
X39930Y293750D01*
X39775Y291875D01*
X40085Y290000D01*
X40550Y288750D01*
X41480Y287500D01*
X42565Y286667D01*
X43650Y286250D01*
X44735D01*
X45820Y286667D01*
X46750Y287291D01*
X47525Y288125D01*
G01X52795Y286250D02*
Y298750D01*
G01X59305D02*
Y286250D01*
G01Y292500D02*
X52795D01*
G01X64575Y286250D02*
X68450Y298750D01*
X72325Y286250D01*
G01X70930Y290625D02*
X65970D01*
G01X77750Y286250D02*
Y298750D01*
X81625D01*
X82865Y298125D01*
X83640Y297292D01*
X83950Y295625D01*
X83640Y293958D01*
X82710Y292917D01*
X81625Y292292D01*
X77750D01*
G01X81625D02*
X83950Y286250D01*
G01X93250Y298750D02*
Y286250D01*
G01X89685Y298750D02*
X96815D01*
G01X105650Y285833D02*
X105340Y286042D01*
Y286458D01*
X105650Y286667D01*
X105960Y286458D01*
Y286042D01*
X105650Y285833D01*
G01Y291458D02*
X105340Y291667D01*
Y292083D01*
X105650Y292292D01*
X105960Y292083D01*
Y291667D01*
X105650Y291458D01*
G01X130450Y298750D02*
Y286250D01*
G01X126885Y298750D02*
X134015D01*
G01X142850Y286250D02*
X141610Y286458D01*
X140525Y287291D01*
X139595Y288542D01*
X138975Y290000D01*
X138665Y291667D01*
Y293333D01*
X138975Y295000D01*
X139595Y296458D01*
X140525Y297708D01*
X141610Y298542D01*
X142850Y298750D01*
X144090Y298542D01*
X145175Y297708D01*
X146105Y296458D01*
X146725Y295000D01*
X147035Y293333D01*
Y291667D01*
X146725Y290000D01*
X146105Y288542D01*
X145175Y287291D01*
X144090Y286458D01*
X142850Y286250D01*
G01X152150D02*
Y298750D01*
X155870D01*
X157110Y298125D01*
X158040Y296667D01*
X158350Y295000D01*
X158040Y293333D01*
X157265Y292083D01*
X155870Y291458D01*
X152150D01*
G01X180050Y298750D02*
Y286250D01*
G01X177880Y294583D02*
X182220D01*
G01X192450Y286250D02*
X191520Y286458D01*
X190590Y287291D01*
X189970Y288750D01*
X189660Y290417D01*
X189970Y292083D01*
X190590Y293542D01*
X191520Y294375D01*
X192450Y294583D01*
X193380Y294375D01*
X194310Y293542D01*
X194930Y292083D01*
X195085Y290417D01*
X194930Y288750D01*
X194310Y287291D01*
X193380Y286458D01*
X192450Y286250D01*
G01X218490Y292917D02*
X219110Y293542D01*
X219575Y294583D01*
X219885Y296042D01*
X219575Y297292D01*
X218955Y298125D01*
X217870Y298750D01*
X213685D01*
Y286250D01*
X218800D01*
X219885Y287083D01*
X220505Y288333D01*
X220815Y289792D01*
X220505Y291250D01*
X219575Y292500D01*
X218490Y292917D01*
X213685D01*
G01X229650Y286250D02*
X228410Y286458D01*
X227325Y287291D01*
X226395Y288542D01*
X225775Y290000D01*
X225465Y291667D01*
Y293333D01*
X225775Y295000D01*
X226395Y296458D01*
X227325Y297708D01*
X228410Y298542D01*
X229650Y298750D01*
X230890Y298542D01*
X231975Y297708D01*
X232905Y296458D01*
X233525Y295000D01*
X233835Y293333D01*
Y291667D01*
X233525Y290000D01*
X232905Y288542D01*
X231975Y287291D01*
X230890Y286458D01*
X229650Y286250D01*
G01X242050Y298750D02*
Y286250D01*
G01X238485Y298750D02*
X245615D01*
G01X254450D02*
Y286250D01*
G01X250885Y298750D02*
X258015D01*
G01X266850Y286250D02*
X265610Y286458D01*
X264525Y287291D01*
X263595Y288542D01*
X262975Y290000D01*
X262665Y291667D01*
Y293333D01*
X262975Y295000D01*
X263595Y296458D01*
X264525Y297708D01*
X265610Y298542D01*
X266850Y298750D01*
X268090Y298542D01*
X269175Y297708D01*
X270105Y296458D01*
X270725Y295000D01*
X271035Y293333D01*
Y291667D01*
X270725Y290000D01*
X270105Y288542D01*
X269175Y287291D01*
X268090Y286458D01*
X266850Y286250D01*
G01X275220D02*
Y298750D01*
X279250Y288333D01*
X283280Y298750D01*
Y286250D01*
G01X0Y-9842D02*
Y-31842D01*
G01X74500Y-22000D02*
X0D01*
G01X15748Y-19539D02*
X0Y-22000D01*
X15748Y-24461D01*
Y-19539D01*
G01X-3625Y261250D02*
X250Y273750D01*
X4125Y261250D01*
G01X2730Y265625D02*
X-2230D01*
G01X9550Y273750D02*
Y261250D01*
X15750D01*
G01X21950Y273750D02*
Y261250D01*
X28150D01*
G01X46440Y273750D02*
Y264792D01*
X47060Y262916D01*
X48300Y261667D01*
X49850Y261250D01*
X51400Y261667D01*
X52640Y262916D01*
X53260Y264792D01*
Y273750D01*
G01X58685Y261250D02*
Y273750D01*
X65815Y261250D01*
Y273750D01*
G01X72790D02*
X76510D01*
G01X74650D02*
Y261250D01*
G01X72790D02*
X76510D01*
G01X87050Y273750D02*
Y261250D01*
G01X83485Y273750D02*
X90615D01*
G01X96195Y262916D02*
X97435Y261875D01*
X98830Y261250D01*
X100070D01*
X101310Y261875D01*
X102240Y262916D01*
X102705Y264375D01*
X102395Y265833D01*
X101620Y267083D01*
X100225Y267917D01*
X98365Y268333D01*
X97280Y269167D01*
X96815Y270625D01*
X97125Y272083D01*
X97900Y273125D01*
X98985Y273750D01*
X100070D01*
X101155Y273333D01*
X102085Y272292D01*
G01X120375Y261250D02*
X124250Y273750D01*
X128125Y261250D01*
G01X126730Y265625D02*
X121770D01*
G01X133550Y261250D02*
Y273750D01*
X137425D01*
X138665Y273125D01*
X139440Y272292D01*
X139750Y270625D01*
X139440Y268958D01*
X138510Y267917D01*
X137425Y267292D01*
X133550D01*
G01X137425D02*
X139750Y261250D01*
G01X152150D02*
X145950D01*
Y273750D01*
X152150D01*
G01X149670Y267708D02*
X145950D01*
G01X171990Y273750D02*
X175710D01*
G01X173850D02*
Y261250D01*
G01X171990D02*
X175710D01*
G01X182685D02*
Y273750D01*
X189815Y261250D01*
Y273750D01*
G01X207020Y261250D02*
Y273750D01*
X211050Y263333D01*
X215080Y273750D01*
Y261250D01*
G01X221590Y273750D02*
X225310D01*
G01X223450D02*
Y261250D01*
G01X221590D02*
X225310D01*
G01X232750Y273750D02*
Y261250D01*
X238950D01*
G01X244995Y262916D02*
X246235Y261875D01*
X247630Y261250D01*
X248870D01*
X250110Y261875D01*
X251040Y262916D01*
X251505Y264375D01*
X251195Y265833D01*
X250420Y267083D01*
X249025Y267917D01*
X247165Y268333D01*
X246080Y269167D01*
X245615Y270625D01*
X245925Y272083D01*
X246700Y273125D01*
X247785Y273750D01*
X248870D01*
X249955Y273333D01*
X250885Y272292D01*
G01X43500Y-15750D02*
Y-3250D01*
X41640Y-5750D01*
G01Y-15750D02*
X45360D01*
G01X52955Y-10542D02*
X54040Y-9083D01*
X54970Y-8250D01*
X56210Y-7833D01*
X57295Y-8250D01*
X58070Y-9083D01*
X58690Y-10333D01*
X58845Y-11792D01*
X58690Y-13042D01*
X58070Y-14292D01*
X57140Y-15333D01*
X56055Y-15750D01*
X54815Y-15333D01*
X53730Y-14084D01*
X53110Y-12208D01*
X52955Y-10125D01*
X53265Y-7417D01*
X53730Y-5958D01*
X54505Y-4500D01*
X55590Y-3458D01*
X56675Y-3250D01*
X57760Y-3667D01*
X58535Y-4708D01*
G01X68300Y-3250D02*
X67060Y-3667D01*
X66130Y-4708D01*
X65510Y-5958D01*
X65045Y-7625D01*
X64890Y-9500D01*
X65045Y-11375D01*
X65510Y-13042D01*
X66130Y-14292D01*
X67060Y-15333D01*
X68300Y-15750D01*
X69540Y-15333D01*
X70470Y-14292D01*
X71090Y-13042D01*
X71555Y-11375D01*
X71710Y-9500D01*
X71555Y-7625D01*
X71090Y-5958D01*
X70470Y-4708D01*
X69540Y-3667D01*
X68300Y-3250D01*
G01X80700D02*
X79460Y-3667D01*
X78530Y-4708D01*
X77910Y-5958D01*
X77445Y-7625D01*
X77290Y-9500D01*
X77445Y-11375D01*
X77910Y-13042D01*
X78530Y-14292D01*
X79460Y-15333D01*
X80700Y-15750D01*
X81940Y-15333D01*
X82870Y-14292D01*
X83490Y-13042D01*
X83955Y-11375D01*
X84110Y-9500D01*
X83955Y-7625D01*
X83490Y-5958D01*
X82870Y-4708D01*
X81940Y-3667D01*
X80700Y-3250D01*
G01X93100Y-16167D02*
X92790Y-15958D01*
Y-15542D01*
X93100Y-15333D01*
X93410Y-15542D01*
Y-15958D01*
X93100Y-16167D01*
G01X105500Y-3250D02*
X104260Y-3667D01*
X103330Y-4708D01*
X102710Y-5958D01*
X102245Y-7625D01*
X102090Y-9500D01*
X102245Y-11375D01*
X102710Y-13042D01*
X103330Y-14292D01*
X104260Y-15333D01*
X105500Y-15750D01*
X106740Y-15333D01*
X107670Y-14292D01*
X108290Y-13042D01*
X108755Y-11375D01*
X108910Y-9500D01*
X108755Y-7625D01*
X108290Y-5958D01*
X107670Y-4708D01*
X106740Y-3667D01*
X105500Y-3250D01*
G01X74500Y-22000D02*
X160000D01*
G01X66900Y255000D02*
Y205000D01*
G01X96040Y236250D02*
Y248750D01*
X99140D01*
X100380Y248125D01*
X101310Y247292D01*
X102085Y246042D01*
X102705Y244583D01*
X102860Y242500D01*
X102705Y240417D01*
X102085Y238958D01*
X101310Y237708D01*
X100380Y236875D01*
X99140Y236250D01*
X96040D01*
G01X108750D02*
Y248750D01*
X112625D01*
X113865Y248125D01*
X114640Y247292D01*
X114950Y245625D01*
X114640Y243958D01*
X113710Y242917D01*
X112625Y242292D01*
X108750D01*
G01X112625D02*
X114950Y236250D01*
G01X122390Y248750D02*
X126110D01*
G01X124250D02*
Y236250D01*
G01X122390D02*
X126110D01*
G01X133550Y248750D02*
Y236250D01*
X139750D01*
G01X145950Y248750D02*
Y236250D01*
X152150D01*
G01X164550D02*
X158350D01*
Y248750D01*
X164550D01*
G01X162070Y242708D02*
X158350D01*
G01X170440Y236250D02*
Y248750D01*
X173540D01*
X174780Y248125D01*
X175710Y247292D01*
X176485Y246042D01*
X177105Y244583D01*
X177260Y242500D01*
X177105Y240417D01*
X176485Y238958D01*
X175710Y237708D01*
X174780Y236875D01*
X173540Y236250D01*
X170440D01*
G01X181600Y232083D02*
X190900D01*
G01X195395Y237916D02*
X196635Y236875D01*
X198030Y236250D01*
X199270D01*
X200510Y236875D01*
X201440Y237916D01*
X201905Y239375D01*
X201595Y240833D01*
X200820Y242083D01*
X199425Y242917D01*
X197565Y243333D01*
X196480Y244167D01*
X196015Y245625D01*
X196325Y247083D01*
X197100Y248125D01*
X198185Y248750D01*
X199270D01*
X200355Y248333D01*
X201285Y247292D01*
G01X209190Y248750D02*
X212910D01*
G01X211050D02*
Y236250D01*
G01X209190D02*
X212910D01*
G01X220505Y248750D02*
X226395D01*
X220505Y236250D01*
X226395D01*
G01X238950D02*
X232750D01*
Y248750D01*
X238950D01*
G01X236470Y242708D02*
X232750D01*
G01X160000Y-9842D02*
Y-31842D01*
G01X144252Y-24461D02*
X160000Y-22000D01*
X144252Y-19539D01*
Y-24461D01*
G01X169842Y0D02*
X196342D01*
G01X180250Y53000D02*
X167750D01*
X170250Y51140D01*
G01X180250D02*
Y54860D01*
G01X175042Y62455D02*
X173583Y63540D01*
X172750Y64470D01*
X172333Y65710D01*
X172750Y66795D01*
X173583Y67570D01*
X174833Y68190D01*
X176292Y68345D01*
X177542Y68190D01*
X178792Y67570D01*
X179833Y66640D01*
X180250Y65555D01*
X179833Y64315D01*
X178584Y63230D01*
X176708Y62610D01*
X174625Y62455D01*
X171917Y62765D01*
X170458Y63230D01*
X169000Y64005D01*
X167958Y65090D01*
X167750Y66175D01*
X168167Y67260D01*
X169208Y68035D01*
G01X167750Y77800D02*
X168167Y76560D01*
X169208Y75630D01*
X170458Y75010D01*
X172125Y74545D01*
X174000Y74390D01*
X175875Y74545D01*
X177542Y75010D01*
X178792Y75630D01*
X179833Y76560D01*
X180250Y77800D01*
X179833Y79040D01*
X178792Y79970D01*
X177542Y80590D01*
X175875Y81055D01*
X174000Y81210D01*
X172125Y81055D01*
X170458Y80590D01*
X169208Y79970D01*
X168167Y79040D01*
X167750Y77800D01*
G01Y90200D02*
X168167Y88960D01*
X169208Y88030D01*
X170458Y87410D01*
X172125Y86945D01*
X174000Y86790D01*
X175875Y86945D01*
X177542Y87410D01*
X178792Y88030D01*
X179833Y88960D01*
X180250Y90200D01*
X179833Y91440D01*
X178792Y92370D01*
X177542Y92990D01*
X175875Y93455D01*
X174000Y93610D01*
X172125Y93455D01*
X170458Y92990D01*
X169208Y92370D01*
X168167Y91440D01*
X167750Y90200D01*
G01X180667Y102600D02*
X180458Y102290D01*
X180042D01*
X179833Y102600D01*
X180042Y102910D01*
X180458D01*
X180667Y102600D01*
G01X167750Y115000D02*
X168167Y113760D01*
X169208Y112830D01*
X170458Y112210D01*
X172125Y111745D01*
X174000Y111590D01*
X175875Y111745D01*
X177542Y112210D01*
X178792Y112830D01*
X179833Y113760D01*
X180250Y115000D01*
X179833Y116240D01*
X178792Y117170D01*
X177542Y117790D01*
X175875Y118255D01*
X174000Y118410D01*
X172125Y118255D01*
X170458Y117790D01*
X169208Y117170D01*
X168167Y116240D01*
X167750Y115000D01*
G01X169842Y160000D02*
X196342D01*
G01X165635Y215417D02*
X169665D01*
G01X186500Y84000D02*
Y0D01*
G01X184039Y15748D02*
X186500Y0D01*
X188961Y15748D01*
X184039D01*
G01X186500Y84000D02*
Y160000D01*
G01X188961Y144252D02*
X186500Y160000D01*
X184039Y144252D01*
X188961D01*
G01X268400Y255000D02*
Y205000D01*
G01X297850Y211250D02*
Y223750D01*
X301570D01*
X302810Y223125D01*
X303740Y221667D01*
X304050Y220000D01*
X303740Y218333D01*
X302965Y217083D01*
X301570Y216458D01*
X297850D01*
G01X310250Y223750D02*
Y211250D01*
X316450D01*
G01X321875D02*
X325750Y223750D01*
X329625Y211250D01*
G01X328230Y215625D02*
X323270D01*
G01X338150Y223750D02*
Y211250D01*
G01X334585Y223750D02*
X341715D01*
G01X353650Y211250D02*
X347450D01*
Y223750D01*
X353650D01*
G01X351170Y217708D02*
X347450D01*
G01X359540Y211250D02*
Y223750D01*
X362640D01*
X363880Y223125D01*
X364810Y222292D01*
X365585Y221042D01*
X366205Y219583D01*
X366360Y217500D01*
X366205Y215417D01*
X365585Y213958D01*
X364810Y212708D01*
X363880Y211875D01*
X362640Y211250D01*
X359540D01*
G01X297850Y236250D02*
Y248750D01*
X301570D01*
X302810Y248125D01*
X303740Y246667D01*
X304050Y245000D01*
X303740Y243333D01*
X302965Y242083D01*
X301570Y241458D01*
X297850D01*
G01X310250Y248750D02*
Y236250D01*
X316450D01*
G01X321875D02*
X325750Y248750D01*
X329625Y236250D01*
G01X328230Y240625D02*
X323270D01*
G01X338150Y248750D02*
Y236250D01*
G01X334585Y248750D02*
X341715D01*
G01X353650Y236250D02*
X347450D01*
Y248750D01*
X353650D01*
G01X351170Y242708D02*
X347450D01*
G01X359540Y236250D02*
Y248750D01*
X362640D01*
X363880Y248125D01*
X364810Y247292D01*
X365585Y246042D01*
X366205Y244583D01*
X366360Y242500D01*
X366205Y240417D01*
X365585Y238958D01*
X364810Y237708D01*
X363880Y236875D01*
X362640Y236250D01*
X359540D01*
G01X395500Y255000D02*
Y205000D01*
G01X424640Y213750D02*
X425570Y212291D01*
X426810Y211458D01*
X428205Y211250D01*
X429445Y211458D01*
X430685Y212500D01*
X431460Y213750D01*
X431615Y215000D01*
X431305Y216458D01*
X430220Y217500D01*
X429135Y217917D01*
X427740D01*
G01X429135D02*
X430065Y218542D01*
X430840Y219583D01*
X431150Y220833D01*
X430840Y222083D01*
X430065Y223125D01*
X428670Y223750D01*
X427275Y223542D01*
X425880Y222708D01*
G01X437505Y216458D02*
X438590Y217917D01*
X439520Y218750D01*
X440760Y219167D01*
X441845Y218750D01*
X442620Y217917D01*
X443240Y216667D01*
X443395Y215208D01*
X443240Y213958D01*
X442620Y212708D01*
X441690Y211667D01*
X440605Y211250D01*
X439365Y211667D01*
X438280Y212916D01*
X437660Y214792D01*
X437505Y216875D01*
X437815Y219583D01*
X438280Y221042D01*
X439055Y222500D01*
X440140Y223542D01*
X441225Y223750D01*
X442310Y223333D01*
X443085Y222292D01*
G01X421850Y236250D02*
X420610Y236458D01*
X419525Y237291D01*
X418595Y238542D01*
X417975Y240000D01*
X417665Y241667D01*
Y243333D01*
X417975Y245000D01*
X418595Y246458D01*
X419525Y247708D01*
X420610Y248542D01*
X421850Y248750D01*
X423090Y248542D01*
X424175Y247708D01*
X425105Y246458D01*
X425725Y245000D01*
X426035Y243333D01*
Y241667D01*
X425725Y240000D01*
X425105Y238542D01*
X424175Y237291D01*
X423090Y236458D01*
X421850Y236250D01*
G01X423090Y239583D02*
X424950Y236250D01*
G01X434250Y248750D02*
Y236250D01*
G01X430685Y248750D02*
X437815D01*
G01X446650Y236250D02*
Y241875D01*
X443550Y248750D01*
G01X449750D02*
X446650Y241875D01*
M02*
