G04 ================== begin FILE IDENTIFICATION RECORD ==================*
G04 Layout Name:  C:/Users/octav/Desktop/PARTEA 2/Layout v2/allegro/sers n21 pcb.brd*
G04 Film Name:    SPTOP*
G04 File Format:  Gerber RS274X*
G04 File Origin:  Cadence Allegro 24.1-P001*
G04 Origin Date:  Fri Dec 13 20:37:43 2024*
G04 *
G04 Layer:  VIA CLASS/PASTEMASK_TOP*
G04 Layer:  PIN/PASTEMASK_TOP*
G04 Layer:  PACKAGE GEOMETRY/PASTEMASK_TOP*
G04 Layer:  DRC ERROR CLASS/PASTEMASK_TOP*
G04 *
G04 Offset:    (0.00 0.00)*
G04 Mirror:    No*
G04 Mode:      Positive*
G04 Rotation:  0*
G04 FullContactRelief:  No*
G04 UndefLineWidth:     0.10*
G04 ================== end FILE IDENTIFICATION RECORD ====================*
%FSLAX25Y25*MOIN*%
%IR0*IPPOS*OFA0.00000B0.00000*MIA0B0*SFA1.00000B1.00000*%
%ADD19R,.118X.062*%
%ADD10C,.06*%
%ADD14C,.018*%
%ADD16R,.118X.078*%
%ADD21R,.054X.054*%
%ADD15R,.045X.054*%
%ADD23R,.054X.045*%
%ADD18R,.2232X.2088*%
%ADD20R,.0585X.0405*%
%ADD13R,.0567X.0423*%
%ADD12R,.0324X.0396*%
%ADD17R,.0396X.0324*%
%ADD11R,.0423X.0567*%
%ADD22R,.0783X.0585*%
%LPD*%
G75*
G54D10*
X20000Y20000D03*
X140000Y140000D03*
G54D11*
X10960Y30000D03*
X19040D03*
Y10000D03*
X10960D03*
X28460D03*
X36540D03*
X45960D03*
Y22500D03*
X40660Y61800D03*
X48740D03*
X40960Y77500D03*
X49040D03*
X33460Y120000D03*
X41540D03*
X48460Y147500D03*
X30960Y145000D03*
X39040D03*
X30960Y132500D03*
X39040D03*
X79040Y10000D03*
X70960D03*
X54040D03*
Y22500D03*
X56540Y147500D03*
X105960Y10000D03*
X96540D03*
X88460D03*
X110960Y80000D03*
X83460Y142500D03*
X91540D03*
X140960Y10000D03*
X131540D03*
X123460D03*
X114040D03*
X119040Y80000D03*
X123460Y125000D03*
X131540D03*
X123460Y137500D03*
X131540D03*
X123460Y150000D03*
X131540D03*
X149040Y10000D03*
G54D20*
X135000Y23750D03*
Y31250D03*
G54D12*
X19331Y50000D03*
X10669Y46260D03*
Y53740D03*
X49331Y45000D03*
X40669Y41260D03*
Y48740D03*
X49331Y97500D03*
X40669Y93760D03*
Y101240D03*
X74331Y145000D03*
X65669Y141260D03*
Y148740D03*
X109331Y145000D03*
X100669Y141260D03*
Y148740D03*
G54D21*
X135472Y46673D03*
X144528D03*
G54D22*
X140000Y68327D03*
G54D13*
X10000Y88460D03*
X22500D03*
X10000Y76540D03*
Y68460D03*
X22500Y76540D03*
Y68460D03*
X10000Y96540D03*
X22500D03*
X52500Y134040D03*
Y125960D03*
X91000Y31960D03*
Y40040D03*
X109000D03*
Y31960D03*
X87500Y118460D03*
Y126540D03*
X122500Y23460D03*
Y31540D03*
X147500Y23460D03*
Y31540D03*
G54D23*
X145000Y118000D03*
Y127000D03*
G54D14*
X10669Y60000D03*
X15500Y106000D03*
X15000Y140000D03*
X22000Y37000D03*
X35000Y41260D03*
Y55000D03*
X30000Y32500D03*
X47000Y30000D03*
X38000Y85000D03*
X30000Y76500D03*
X50000Y87500D03*
X60000Y25000D03*
X65500Y10000D03*
X55000Y45000D03*
X73000Y77000D03*
X61000Y112500D03*
X73000Y100000D03*
X80700Y130400D03*
X78100Y135000D03*
X62500D03*
X109000Y26000D03*
X83000Y44000D03*
X107500Y72500D03*
X108000Y105000D03*
X87500Y113500D03*
X96000Y134500D03*
X135000Y17500D03*
X122500D03*
X115000Y48500D03*
X135000Y38500D03*
X125000Y55000D03*
X132500Y102500D03*
X121000Y106000D03*
X112500Y135000D03*
X142500Y91000D03*
X145000Y133000D03*
G54D15*
X15500Y112500D03*
X24500D03*
G54D16*
X15000Y147000D03*
Y129000D03*
X142500Y84500D03*
Y102500D03*
G54D17*
X72500Y41831D03*
X76240Y33169D03*
X68760D03*
X73740Y118169D03*
X66260D03*
X70000Y126831D03*
X110260Y55669D03*
Y91169D03*
X108740Y118169D03*
X101260D03*
X105000Y126831D03*
X117740Y55669D03*
X114000Y64331D03*
Y99831D03*
X117740Y91169D03*
G54D18*
X90236Y62500D03*
Y95000D03*
G54D19*
X63661Y53484D03*
Y62500D03*
Y71516D03*
Y85984D03*
Y95000D03*
Y104016D03*
M02*
