G04 ================== begin FILE IDENTIFICATION RECORD ==================*
G04 Layout Name:  C:/Users/octav/Desktop/PARTEA 2/Layout v2/allegro/sers n21 pcb.brd*
G04 Film Name:    TOP*
G04 File Format:  Gerber RS274X*
G04 File Origin:  Cadence Allegro 24.1-P001*
G04 Origin Date:  Fri Dec 13 20:37:43 2024*
G04 *
G04 Layer:  ETCH/TOP*
G04 Layer:  PIN/TOP*
G04 Layer:  VIA CLASS/TOP*
G04 *
G04 Offset:    (0.00 0.00)*
G04 Mirror:    No*
G04 Mode:      Positive*
G04 Rotation:  0*
G04 FullContactRelief:  No*
G04 UndefLineWidth:     0.10*
G04 ================== end FILE IDENTIFICATION RECORD ====================*
%FSLAX25Y25*MOIN*%
%IR0*IPPOS*OFA0.00000B0.00000*MIA0B0*SFA1.00000B1.00000*%
%ADD16R,.12X.08*%
%ADD19R,.12X.064*%
%ADD14C,.02*%
%ADD10C,.04*%
%ADD21R,.06X.06*%
%ADD15R,.05X.06*%
%ADD23R,.06X.05*%
%ADD18R,.248X.232*%
%ADD12R,.036X.044*%
%ADD17R,.044X.036*%
%ADD20R,.065X.045*%
%ADD13R,.063X.047*%
%ADD11R,.047X.063*%
%ADD22R,.087X.065*%
%ADD24C,.018*%
G75*
%LPD*%
G75*
G36*
G01X73000Y111000D02*
X100805D01*
X101433Y110373D01*
G03X103060Y109698I1628J1626D01*
G01X123047D01*
X126000Y106745D01*
Y72220D01*
G02X125317Y71938I-400J1D01*
G01X122154Y75101D01*
G02X122204Y75709I283J283D01*
G03X122792Y76850I-813J1141D01*
G01Y83150D01*
G03X121523Y84545I-1401J0D01*
G02X121342Y84744I19J199D01*
G01Y84960D01*
G03X120667Y86587I-2301J-1D01*
G01X120042Y87213D01*
Y87961D01*
X120204Y87992D01*
G03X121342Y89369I-264J1377D01*
G01Y92969D01*
G03X119940Y94371I-1402J0D01*
G01X108060D01*
G03X106658Y92969I0J-1402D01*
G01Y89369D01*
G03X107796Y87992I1402J0D01*
G01X107958Y87961D01*
Y86240D01*
G03X108298Y85038I2301J2D01*
G02X108102Y84456I-341J-209D01*
G03X107208Y83150I507J-1306D01*
G01Y76850D01*
G03X108477Y75455I1401J0D01*
G02X108658Y75256I-19J-199D01*
G01Y74040D01*
G03X109333Y72413I2301J1D01*
G01X111698Y70047D01*
Y67539D01*
X111536Y67507D01*
G03X110398Y66131I263J-1376D01*
G01Y62531D01*
G03X111800Y61130I1401J0D01*
G01X116200D01*
G03X117602Y62531I0J1402D01*
G01Y66131D01*
G03X116464Y67507I-1401J0D01*
G01X116302Y67539D01*
Y71000D01*
G03X115627Y72627I-2301J-1D01*
G01X113262Y74993D01*
Y75256D01*
G02X113443Y75455I200J0D01*
G03X114712Y76850I-132J1395D01*
G01Y83150D01*
G03X113443Y84545I-1401J0D01*
G02X113262Y84744I19J199D01*
G01Y85540D01*
G03X112617Y87137I-2302J-1D01*
G01X112562Y87195D01*
Y87967D01*
X115438D01*
Y86260D01*
G03X115928Y84841I2302J1D01*
G02X115852Y84274I-315J-246D01*
G03X115288Y83150I838J-1124D01*
G01Y76850D01*
G03X116557Y75455I1401J0D01*
G02X116738Y75256I-19J-199D01*
G01Y74960D01*
G03X117413Y73333I2301J1D01*
G01X122698Y68047D01*
Y55688D01*
X122691Y55661D01*
G03X122598Y55000I2309J-662D01*
G03X125000Y52598I2402J0D01*
G03X125514Y52654I-2J2402D01*
G02X126000Y52263I86J-391D01*
G01Y48255D01*
X125745Y48000D01*
X119362D01*
G02X119079Y48683I0J400D01*
G01X119438Y49042D01*
G03X120142Y50740I-1698J1699D01*
G01Y52473D01*
X120291Y52512D01*
G03X121342Y53869I-351J1357D01*
G01Y57469D01*
G03X119940Y58871I-1402J0D01*
G01X108060D01*
G03X106658Y57469I0J-1402D01*
G01Y53869D01*
G03X107796Y52492I1402J0D01*
G01X107958Y52461D01*
Y48000D01*
X73000D01*
Y70745D01*
X74627Y72373D01*
G03X75302Y74000I-1626J1628D01*
G01Y76312D01*
X75309Y76339D01*
G03X75402Y77000I-2309J662D01*
G03X73000Y79402I-2402J0D01*
G01Y97598D01*
G03X75402Y100000I0J2402D01*
G03X75309Y100661I-2402J-1D01*
G01X75302Y100688D01*
Y102400D01*
G03X74627Y104027I-2301J-1D01*
G01X73000Y105655D01*
Y111000D01*
G37*
%LPC*%
G75*
G36*
G01X77334Y83400D02*
Y106600D01*
G02X77836Y107102I502J0D01*
G01X102636D01*
G02X103138Y106600I0J-502D01*
G01Y83400D01*
G02X102636Y82898I-502J0D01*
G01X77836D01*
G02X77334Y83400I0J502D01*
G37*
G36*
G01Y50900D02*
Y74100D01*
G02X77836Y74602I502J0D01*
G01X102636D01*
G02X103138Y74100I0J-502D01*
G01Y50900D01*
G02X102636Y50398I-502J0D01*
G01X77836D01*
G02X77334Y50900I0J502D01*
G37*
G36*
G01X105698Y102231D02*
Y104312D01*
X105691Y104339D01*
G02X105598Y105000I2309J662D01*
G02X110402I2402J0D01*
G02X110309Y104339I-2402J1D01*
G01X110302Y104312D01*
Y103184D01*
X110837Y102649D01*
G02X111800Y103032I963J-1019D01*
G01X116200D01*
G02X117602Y101631I1J-1401D01*
G01Y98031D01*
G02X116200Y96630I-1402J1D01*
G01X111800D01*
G02X110491Y97531I0J1401D01*
G02X110400Y97530I-71J2300D01*
G02X108773Y98204I0J2301D01*
G01X106373Y100604D01*
G02X105698Y102231I1626J1628D01*
G37*
%LPD*%
G75*
G54D10*
X20000Y20000D03*
X140000Y140000D03*
G54D11*
X10960Y30000D03*
X19040D03*
Y10000D03*
X10960D03*
X28460D03*
X36540D03*
X45960D03*
Y22500D03*
X40660Y61800D03*
X48740D03*
X40960Y77500D03*
X49040D03*
X33460Y120000D03*
X41540D03*
X48460Y147500D03*
X30960Y145000D03*
X39040D03*
X30960Y132500D03*
X39040D03*
X79040Y10000D03*
X70960D03*
X54040D03*
Y22500D03*
X56540Y147500D03*
X105960Y10000D03*
X96540D03*
X88460D03*
X110960Y80000D03*
X83460Y142500D03*
X91540D03*
X140960Y10000D03*
X131540D03*
X123460D03*
X114040D03*
X119040Y80000D03*
X123460Y125000D03*
X131540D03*
X123460Y137500D03*
X131540D03*
X123460Y150000D03*
X131540D03*
X149040Y10000D03*
G54D20*
X135000Y23750D03*
Y31250D03*
G54D12*
X19331Y50000D03*
X10669Y46260D03*
Y53740D03*
X49331Y45000D03*
X40669Y41260D03*
Y48740D03*
X49331Y97500D03*
X40669Y93760D03*
Y101240D03*
X74331Y145000D03*
X65669Y141260D03*
Y148740D03*
X109331Y145000D03*
X100669Y141260D03*
Y148740D03*
G54D21*
X135472Y46673D03*
X144528D03*
G54D22*
X140000Y68327D03*
G54D13*
X10000Y88460D03*
X22500D03*
X10000Y76540D03*
Y68460D03*
X22500Y76540D03*
Y68460D03*
X10000Y96540D03*
X22500D03*
X52500Y134040D03*
Y125960D03*
X91000Y31960D03*
Y40040D03*
X109000D03*
Y31960D03*
X87500Y118460D03*
Y126540D03*
X122500Y23460D03*
Y31540D03*
X147500Y23460D03*
Y31540D03*
G54D23*
X145000Y118000D03*
Y127000D03*
G54D14*
G01X10669Y53740D02*
Y60000D01*
G01X15500Y112500D02*
Y106000D01*
G01X15000Y147000D02*
Y140000D01*
G01X70960Y10000D02*
X65500D01*
G01X66260Y118169D02*
Y114760D01*
X64000Y112500D01*
X61000D01*
G01X87500Y118460D02*
Y113500D01*
G01X122500Y23460D02*
Y17500D01*
G01X135000Y23750D02*
Y17500D01*
G01X115000Y48500D02*
X115500D01*
X117740Y50740D01*
Y55669D01*
G01X142500Y84500D02*
Y91000D01*
G01X145000Y127000D02*
Y133000D01*
X10669Y60000D03*
X15500Y106000D03*
X15000Y140000D03*
X22000Y37000D03*
X35000Y41260D03*
Y55000D03*
X30000Y32500D03*
X47000Y30000D03*
X38000Y85000D03*
X30000Y76500D03*
X50000Y87500D03*
X60000Y25000D03*
X65500Y10000D03*
X55000Y45000D03*
X73000Y77000D03*
X61000Y112500D03*
X73000Y100000D03*
X80700Y130400D03*
X78100Y135000D03*
X62500D03*
X109000Y26000D03*
X83000Y44000D03*
X107500Y72500D03*
X108000Y105000D03*
X87500Y113500D03*
X96000Y134500D03*
X135000Y17500D03*
X122500D03*
X115000Y48500D03*
X135000Y38500D03*
X125000Y55000D03*
X132500Y102500D03*
X121000Y106000D03*
X112500Y135000D03*
X142500Y91000D03*
X145000Y133000D03*
G54D24*
G01X10960Y10000D02*
Y30000D01*
G01X19040Y10000D02*
X28460D01*
G01X19331Y50000D02*
Y42669D01*
X22000Y40000D01*
Y37000D01*
G01X16500Y68460D02*
Y60500D01*
X19331Y57669D01*
Y50000D01*
G01X40669Y35037D02*
X37801D01*
X36000Y33236D01*
Y29800D01*
X34200Y28000D01*
X26500D01*
X24500Y30000D01*
X19040D01*
G01X22500Y68460D02*
X16500D01*
G01D02*
X10000D01*
G01X22500Y76540D02*
X10000D01*
G01D02*
Y88460D01*
G01D02*
X22500D01*
G01X10000Y96540D02*
X22500D01*
G01X15000Y129000D02*
Y121500D01*
X13500Y120000D01*
X10500D01*
X7500Y117000D01*
Y109000D01*
X10000Y106500D01*
Y96540D01*
G01X15000Y129000D02*
X24000D01*
X27000Y126000D01*
Y121500D01*
X28500Y120000D01*
X33460D01*
G01X45960Y22500D02*
Y10000D01*
G01X36540D02*
X45960D01*
G01X49331Y45000D02*
X55000D01*
G01X63661Y53484D02*
X55116D01*
X53813Y54787D01*
X50013D01*
X48740Y56060D01*
Y61800D01*
G01X72500Y41831D02*
X63831D01*
X57037Y35037D01*
X40669D01*
G01X35000Y41260D02*
X40669D01*
G01Y35037D02*
Y41260D01*
G01X35000Y55000D02*
Y79500D01*
X30500Y84000D01*
Y95000D01*
X28960Y96540D01*
X22500D01*
G01X30000Y32500D02*
X27500Y35000D01*
Y45000D01*
X31240Y48740D01*
X40669D01*
G01X47000Y30000D02*
X51090D01*
X54040Y27050D01*
Y22500D01*
G01X40660Y61800D02*
Y52349D01*
X40669Y52340D01*
Y48740D01*
G01X38000Y85000D02*
X35000Y88000D01*
Y98771D01*
X37469Y101240D01*
X40669D01*
G01X30000Y76500D02*
Y70000D01*
X28500Y68500D01*
X27090D01*
X27050Y68460D01*
X22500D01*
G01X50000Y87500D02*
X43329D01*
X40669Y90160D01*
Y93760D01*
G01X48440Y77500D02*
X49040D01*
G01X63661Y85984D02*
X55984D01*
X54000Y84000D01*
Y79000D01*
X52500Y77500D01*
X49040D01*
G01X40960D02*
Y72740D01*
X41500Y72200D01*
Y68400D01*
X40660Y67560D01*
Y61800D01*
G01X40669Y101240D02*
Y107669D01*
X42000Y109000D01*
X50000D01*
X59000Y118000D01*
Y124000D01*
X66000Y131000D01*
X70000D01*
G01X41540Y120000D02*
Y115450D01*
X38590Y112500D01*
X24500D01*
G01X63661Y95000D02*
X56261D01*
X53761Y97500D01*
X49331D01*
G01X41540Y120000D02*
Y125450D01*
X39040Y127950D01*
Y132500D01*
G01X41540Y120000D02*
X50700D01*
X52500Y121800D01*
Y125960D01*
G01X39040Y145000D02*
Y132500D01*
G01X52500Y134040D02*
Y138910D01*
X48460Y142950D01*
Y147500D01*
G01X30960Y145000D02*
Y151460D01*
X33000Y153500D01*
X47010D01*
X48460Y152050D01*
Y147500D01*
G01X30960Y132500D02*
Y145000D01*
G01Y132500D02*
Y127050D01*
X33460Y124550D01*
Y120000D01*
G01X68760Y33169D02*
Y28660D01*
X65100Y25000D01*
X60000D01*
G01X79040Y10000D02*
X88460D01*
G01X54040D02*
Y22500D01*
G01X76240Y33169D02*
X83831D01*
X85040Y31960D01*
X91000D01*
G01X72500Y41831D02*
X78431D01*
X80600Y44000D01*
X83000D01*
G01X63661Y71516D02*
X70516D01*
X73000Y74000D01*
Y77000D01*
G01X63661Y62500D02*
X74500D01*
G01X77134D02*
X90236D01*
G01X63661Y104016D02*
X71384D01*
X73000Y102400D01*
Y100000D01*
G01X87500Y126540D02*
X82950D01*
X82910Y126500D01*
X82000D01*
X80500Y125000D01*
Y120500D01*
X78169Y118169D01*
X73740D01*
G01X63661Y95000D02*
X74500D01*
G01X77134D02*
X90236D01*
G01X74331Y145000D02*
Y136831D01*
X70000Y132500D01*
Y131000D01*
G01Y126831D02*
Y131000D01*
G01X80700Y130400D02*
X77500D01*
X73931Y126831D01*
X70000D01*
G01X65669Y141260D02*
X58230D01*
X56540Y142950D01*
Y147500D01*
G01X65669Y148740D02*
X69740D01*
X73500Y152500D01*
X92500D01*
X96260Y148740D01*
X100669D01*
G01X62500Y135000D02*
X59900D01*
X58340Y133440D01*
X52500D01*
Y134040D01*
G01X78100Y135000D02*
X81500D01*
X83460Y136960D01*
Y142500D01*
G01X96540Y10000D02*
X105960D01*
G01X109000Y31960D02*
Y26000D01*
G01X110260Y55669D02*
Y45050D01*
X109000Y43790D01*
Y40040D01*
G01X91000D02*
X109000D01*
G01X90236Y50198D02*
Y62500D01*
G01D02*
Y74802D01*
G01Y62500D02*
X103338D01*
G01X90236Y82698D02*
Y95000D01*
G01X114000Y64331D02*
Y71000D01*
X110960Y74040D01*
Y80000D01*
G01D02*
Y85540D01*
X110260Y86240D01*
Y91169D01*
G01X114000Y99831D02*
X110400D01*
X108000Y102231D01*
Y105000D01*
G01X108740Y118169D02*
X112340D01*
X115000Y120829D01*
Y132500D01*
X112500Y135000D01*
G01X90236Y95000D02*
Y107302D01*
G01Y95000D02*
X103338D01*
G01X140000Y68327D02*
X132674D01*
X129000Y72001D01*
Y107000D01*
X124000Y112000D01*
X103060D01*
X101260Y113800D01*
Y118169D01*
G01X96000Y134500D02*
X94000Y132500D01*
Y128490D01*
X92050Y126540D01*
X87500D01*
G01X100669Y141260D02*
X95940D01*
X94700Y142500D01*
X91540D01*
G01X105000Y126831D02*
Y136000D01*
X109331Y140331D01*
Y145000D01*
G01D02*
Y148600D01*
X107931Y150000D01*
X105129D01*
X103869Y148740D01*
X100669D01*
G01X114040Y10000D02*
X123460D01*
G01X131540D02*
X140960D01*
G01X135472Y46673D02*
X127673D01*
X122500Y41500D01*
Y31540D01*
G01X135000Y31250D02*
Y38500D01*
G01Y31250D02*
X139650D01*
X141500Y29400D01*
Y24910D01*
X142950Y23460D01*
X147500D01*
G01X125000Y55000D02*
Y69000D01*
X119040Y74960D01*
Y80000D01*
G01X117740Y91169D02*
Y86260D01*
X119040Y84960D01*
Y80000D01*
G01X131540Y125000D02*
X135500D01*
X138000Y122500D01*
Y119000D01*
X139000Y118000D01*
X145000D01*
G01X142500Y102500D02*
Y110500D01*
X141000Y112000D01*
X131000D01*
X123460Y119540D01*
Y125000D01*
G01X142500Y102500D02*
X132500D01*
G01X131540Y150000D02*
Y137500D01*
G01D02*
Y125000D01*
G01X123460Y137500D02*
Y125000D01*
G01Y150000D02*
Y137500D01*
G01X149040Y10000D02*
Y16460D01*
X147500Y18000D01*
Y23460D01*
G01X144528Y46673D02*
Y40472D01*
X147500Y37500D01*
Y31540D01*
G54D15*
X15500Y112500D03*
X24500D03*
G54D16*
X15000Y147000D03*
Y129000D03*
X142500Y84500D03*
Y102500D03*
G54D17*
X72500Y41831D03*
X76240Y33169D03*
X68760D03*
X73740Y118169D03*
X66260D03*
X70000Y126831D03*
X110260Y55669D03*
Y91169D03*
X108740Y118169D03*
X101260D03*
X105000Y126831D03*
X117740Y55669D03*
X114000Y64331D03*
Y99831D03*
X117740Y91169D03*
G54D18*
X90236Y62500D03*
Y95000D03*
G54D19*
X63661Y53484D03*
Y62500D03*
Y71516D03*
Y85984D03*
Y95000D03*
Y104016D03*
M02*
